<?xml version="1.0" standalone="no"?>
<!DOCTYPE svg PUBLIC "-//W3C//DTD SVG 20010904//EN"
 "http://www.w3.org/TR/2001/REC-SVG-20010904/DTD/svg10.dtd">
<svg version="1.0" xmlns="http://www.w3.org/2000/svg"
 width="460.000000pt" height="460.000000pt" viewBox="0 0 460.000000 460.000000"
 preserveAspectRatio="xMidYMid meet">
<metadata>
Created by potrace 1.14, written by Peter Selinger 2001-2017
</metadata>
<g transform="translate(0.000000,460.000000) scale(0.100000,-0.100000)"
fill="#000000" stroke="none">
<path d="M2545 3452 c-16 -2 -37 -6 -45 -9 -8 -3 -18 -5 -22 -5 -5 1 -8 -3 -8
-10 0 -6 -3 -9 -6 -6 -7 8 -98 -89 -170 -182 -32 -41 -62 -77 -66 -78 -5 -2
-6 -8 -2 -13 3 -5 0 -9 -6 -9 -6 0 -18 -7 -26 -15 -9 -8 -13 -15 -10 -15 4 0
-35 -51 -86 -112 -51 -62 -97 -119 -103 -126 -5 -7 -17 -21 -25 -30 -8 -10
-36 -45 -61 -79 -26 -34 -49 -59 -53 -56 -3 4 -6 1 -6 -5 0 -6 -6 -17 -13 -24
-7 -7 -27 -31 -43 -53 -30 -41 -58 -76 -84 -104 -8 -9 -31 -38 -50 -64 -23
-31 -43 -46 -57 -47 -13 0 -23 4 -23 10 0 5 -11 20 -25 34 -14 14 -25 29 -25
35 0 5 -3 11 -7 13 -5 2 -28 28 -53 58 -25 30 -47 57 -50 60 -3 3 -17 21 -32
40 -14 19 -36 45 -47 58 -12 12 -18 22 -14 22 4 0 -3 7 -15 16 -12 8 -22 22
-22 30 0 8 -5 14 -10 14 -6 0 -16 11 -22 25 -6 14 -17 25 -25 25 -7 0 -13 6
-13 13 0 6 -15 28 -34 49 -18 20 -44 51 -57 70 -13 18 -34 44 -46 58 -31 36
-54 64 -83 102 -14 17 -49 60 -78 94 -28 35 -52 68 -52 74 0 6 -4 8 -10 5 -5
-3 -10 -2 -10 3 0 19 -74 94 -112 113 -32 16 -53 20 -102 16 -74 -5 -83 -8
-121 -33 -75 -49 -127 -110 -142 -167 -8 -31 -9 -156 -2 -194 4 -18 4 -31 0
-29 -11 7 -10 -1758 1 -1804 12 -46 42 -81 93 -110 27 -15 56 -19 164 -19 72
0 133 4 136 10 4 5 11 7 16 4 5 -4 9 -1 9 4 0 6 5 11 11 11 14 0 61 57 76 92
9 21 12 176 11 602 0 315 2 578 6 585 8 13 36 15 36 3 0 -5 18 -28 40 -53 22
-24 40 -47 40 -51 0 -4 11 -18 24 -31 14 -14 22 -28 19 -31 -4 -3 -2 -6 4 -6
6 0 30 -26 54 -57 43 -57 87 -108 122 -145 9 -10 17 -20 17 -23 0 -5 17 -27
65 -84 17 -20 47 -56 65 -81 74 -96 126 -126 222 -129 94 -3 135 19 218 118
19 23 52 61 73 85 20 24 37 49 37 55 0 7 5 9 10 6 6 -3 10 -1 10 4 0 6 9 20
20 31 11 11 17 20 14 20 -3 0 7 14 23 31 53 58 63 69 58 69 -2 0 6 11 18 24
58 65 67 76 63 76 -3 0 5 11 17 24 42 45 84 96 79 96 -3 0 3 9 14 19 10 10 29
32 41 48 12 15 31 39 43 53 12 14 31 38 43 53 12 15 30 38 41 50 10 12 30 38
45 57 14 19 34 42 43 51 10 9 18 20 18 24 0 14 58 74 65 67 4 -4 5 -2 3 3 -4
13 64 104 125 167 9 10 17 22 17 26 0 5 10 18 23 30 74 69 101 159 77 249 -11
38 -28 62 -79 112 -81 78 -135 101 -216 93z"/>
<path d="M3840 3452 c-35 -4 -92 -23 -87 -28 3 -3 -8 -17 -23 -33 -16 -15 -33
-45 -38 -67 -6 -23 -9 -277 -8 -617 1 -318 -1 -580 -5 -582 -7 -5 -49 28 -49
38 0 3 -16 23 -36 44 -53 55 -119 146 -116 158 2 5 0 7 -4 3 -3 -4 -19 9 -35
30 -16 20 -35 44 -44 53 -8 9 -15 19 -15 24 0 4 -8 15 -18 24 -10 9 -36 38
-57 66 -22 27 -44 55 -50 61 -5 6 -23 29 -40 50 -39 52 -127 142 -140 144 -5
0 -20 3 -33 7 -37 9 -105 9 -142 0 -19 -4 -41 -9 -47 -9 -7 -1 -13 -5 -13 -9
0 -4 -9 -11 -21 -14 -11 -4 -18 -9 -16 -11 3 -3 -15 -25 -38 -49 -24 -24 -41
-46 -38 -49 3 -3 -2 -8 -11 -12 -9 -3 -16 -10 -16 -16 0 -5 -10 -19 -22 -32
-13 -13 -36 -40 -53 -61 -16 -21 -52 -66 -80 -100 -27 -34 -62 -77 -77 -96
-26 -34 -49 -61 -94 -111 -13 -16 -22 -28 -19 -28 3 0 -6 -12 -20 -27 -14 -15
-25 -31 -25 -36 0 -4 -4 -5 -10 -2 -5 3 -10 0 -10 -8 0 -8 -10 -25 -23 -38
-13 -13 -68 -80 -122 -149 -55 -69 -104 -130 -110 -136 -23 -24 -77 -93 -76
-98 0 -3 -19 -26 -43 -51 -24 -25 -42 -45 -38 -45 3 0 -3 -7 -14 -15 -10 -8
-16 -15 -12 -15 5 0 0 -8 -10 -18 -39 -41 -67 -77 -64 -84 1 -5 -2 -8 -7 -8
-20 0 -44 -75 -43 -134 1 -82 21 -124 88 -184 66 -60 103 -79 164 -85 48 -5
140 17 140 33 0 6 7 10 15 10 8 0 15 3 15 8 0 4 13 21 28 37 15 17 45 53 67
80 22 28 43 52 48 53 4 2 7 8 7 12 0 5 16 26 35 47 19 21 35 41 35 45 0 4 16
23 35 44 19 20 35 41 35 46 0 5 5 6 10 3 6 -3 10 0 10 7 0 7 16 30 35 51 18
20 32 37 30 37 -2 0 7 12 21 27 13 14 35 40 47 56 19 25 83 106 127 161 36 45
93 113 115 139 14 15 25 30 25 32 0 7 47 60 84 96 l28 29 21 -28 c12 -15 24
-29 27 -32 3 -3 24 -27 45 -55 22 -27 45 -55 50 -62 6 -7 15 -18 20 -25 12
-16 106 -129 120 -144 5 -6 17 -22 25 -34 8 -13 24 -33 35 -46 28 -32 43 -50
105 -126 29 -38 57 -68 62 -68 4 0 8 -5 8 -11 0 -6 12 -25 26 -43 14 -17 35
-44 47 -59 12 -16 36 -43 52 -61 17 -18 32 -37 35 -42 5 -11 9 -15 112 -136
22 -27 46 -48 53 -48 8 0 15 -5 17 -11 4 -12 33 -18 106 -22 23 -1 42 2 42 6
0 5 3 6 8 3 24 -14 190 117 195 155 2 8 7 21 12 29 14 23 18 123 4 114 -8 -5
-9 -3 -3 7 11 18 12 60 2 81 -5 10 -4 20 3 24 8 4 7 9 -2 15 -8 5 -9 9 -3 9
12 0 12 29 0 48 -4 6 -2 12 3 12 6 0 11 5 11 11 0 5 -4 7 -10 4 -6 -4 -6 4 1
22 7 19 7 29 0 31 -6 2 -8 9 -4 15 13 21 13 68 0 60 -9 -5 -8 -2 0 8 10 12 10
18 0 29 -8 8 -8 11 0 6 14 -8 13 96 -2 106 -7 5 -6 8 0 8 13 0 14 59 1 79 -6
9 -5 12 1 8 7 -5 11 203 12 667 1 459 -1 676 -9 681 -5 3 -10 12 -10 20 0 15
-56 75 -71 75 -5 0 -9 4 -9 8 0 5 -6 9 -12 10 -32 4 -236 7 -258 4z"/>
<path d="M2825 1721 c-3 -6 -11 -9 -16 -6 -5 4 -9 -1 -9 -10 0 -9 -4 -14 -9
-11 -4 3 -13 -6 -19 -19 -7 -14 -16 -25 -22 -25 -5 0 -10 -6 -10 -13 0 -7 -9
-18 -20 -25 -11 -7 -20 -19 -20 -27 0 -8 -5 -15 -10 -15 -6 0 -13 -7 -16 -15
-3 -8 -17 -27 -30 -42 -13 -16 -56 -68 -95 -118 -79 -101 -122 -154 -150 -186
-38 -44 -21 -82 50 -106 53 -19 279 -17 325 2 20 8 36 20 36 25 0 6 6 10 14
10 8 0 18 9 21 20 3 11 11 20 17 20 6 0 8 3 5 7 -4 3 -2 12 4 19 12 14 17 389
6 400 -3 3 -1 19 3 35 5 18 5 29 -1 29 -6 0 -8 4 -5 9 3 4 -5 18 -18 30 -16
15 -26 19 -31 12z"/>
</g>
</svg>
